Patient4_TMGait_0pt2_02_left_05_EMG.mot
version=1
nRows=23
nColumns=33
inDegrees=no
endheader
time	1LAddLong	2LGlutMax	3LGlutMed	4LIliopsoas	5LSemiMemb	6LBicFemLong	7LRecFem	8LVastMed	9LVastLat	10LGasMed	11LTibAnt	12lTibPost	13LPeroneusLong	14LSol	15LExtDigLong	16LFlexDigLong	17RAddLong	18RGlutMax	19RGlutMed	20RIliopsoas	21RSemiMemb	22RBicFemLong	23RRecFem	24RVastMed	25RVastLat	26RGasMed	27RTibAnt	28RTibPost	29RPeroneusLong	30RSol	31RExtDigLong	32RFlexDigLong
11.912	0.010529	0.10864	0.070801	-0.002136	0.067444	0.088959	0.065308	0.010223	0.030518	0.023651	-0.16708	0.004425	0.03952	-0.2945	-0.043335	-0.00946	-0.045319	0.032196	-0.62363	0.064087	0.41626	0.030823	-0.044403	0.076447	0.036163	0.014496	0.002136	-0.01297	-0.059204	0.020752	-0.00473	-0.011139
11.913	0.0177	0.11292	0.042725	0.005341	0.019684	0.04715	0.051575	-0.005493	-0.036011	0.015564	-0.11856	0.004578	0.009308	-0.14908	0.066376	0.003357	-0.016937	0.023651	-0.5957	0.008545	0.15564	-0.029602	-0.068512	0.040131	0.034637	0.00824	0.009613	-0.014801	-0.10422	0.008087	-0.002441	-0.010376
11.914	0.0177	0.13092	-0.000458	0.003662	-0.021057	0.09079	0.085602	-0.014496	-0.12909	0.009308	-0.088196	0.006714	0.020752	-0.20416	0.14633	0.000305	0.00473	0.006714	-0.42954	0.091248	0.046997	-0.04425	-0.021057	0.034027	0.002441	0.014648	0.011139	-0.013733	-0.24826	0.022125	-0.004425	-0.018005
11.915	0.012054	0.094147	-0.059662	0.00473	-0.018005	0.086365	0.037842	-0.009766	-0.067749	0.016022	-0.012054	0.004425	0.012665	-0.1828	0.27145	-0.005798	0.008698	-0.003357	0.16464	0.002747	0.088959	-0.001678	-0.010681	0.002136	0.014496	-0.005341	0.041046	-0.010834	-0.13214	0.053864	-0.005341	-0.017395
11.916	0.018616	0.097504	-0.066223	0.016174	0.059204	0.11688	0.028076	-0.020142	0.024567	0.015411	0.01358	0.017395	0.016174	-0.12253	0.26123	0.001984	-0.014954	0.044098	0.74127	-0.17258	-0.07782	0.046234	-0.052795	0.04715	0.01709	-0.024109	0.035095	-0.004578	-0.061493	-0.007782	-0.001526	-0.020142
11.917	0.016174	0.14816	0.02182	-0.010986	0.045319	0.21103	-0.011597	0.008545	0.045471	0.013428	0.021057	0.003967	0.11795	-0.1091	0.20737	-0.002289	-0.008545	0.037079	0.55786	-0.079346	-0.061798	-0.009766	-0.014648	-0.030518	0.008087	-0.033875	0.035858	0.006409	-0.215	-0.073547	-0.005951	-0.022583
11.918	0.002441	0.097046	-0.032349	-0.008698	0.018311	0.23605	0.069885	0.016327	0.074158	0.016174	0.030518	0.011749	-0.062714	-0.12192	0.10956	0.001221	0.003204	0.020599	0.095062	0.06485	0.085144	-0.016937	-0.009003	-0.063019	-0.005493	-0.00824	0.014191	0.003662	-0.12665	-0.32349	-0.004272	-0.018311
11.919	0.000305	0.10208	0.002441	0.000763	-0.007324	0.26291	0.096741	0.007782	0.10391	0.00885	0.024872	0.003662	-0.081024	-0.11795	0.30701	0.009003	0.023499	-0.015106	-0.31799	0.15488	0.092773	-0.028229	-0.036774	-0.097656	-0.005341	0.002289	0.019989	-0.034332	-0.11887	-0.36148	-0.005798	-0.02243
11.92	-0.007019	0.11017	-0.023956	-0.014648	-0.036774	0.23254	0.062866	0.003357	0.057983	-0.000305	0.028687	0.006409	-0.009613	-0.079651	0.50491	0.003052	0.052948	0.010071	-0.27756	0.13825	0.084534	-0.05661	-0.014954	-0.099487	-0.00885	-0.001831	0.041199	-0.14008	-0.48752	-0.16693	-0.005951	-0.01297
11.921	-0.00473	0.13199	-0.016785	0.003052	-0.050354	-0.12466	0.050964	-0.005493	0.014343	0.006714	0.023346	0.004425	0.002289	-0.052185	0.79926	0.002747	0.1001	-0.027161	-0.016327	0.071106	0.086212	-0.06073	0.003967	-0.14618	-0.000153	-0.00885	-0.006714	-0.007324	-0.1329	0.17929	-0.005035	-0.006104
11.922	-0.005798	0.1326	-0.039215	0.003815	-0.077972	-0.53528	0.045013	-0.011444	-0.009003	0.011902	0.039215	0.010529	-0.020599	-0.003052	-0.63339	0.006256	0.078125	0.001068	0.00473	0.001373	-0.086365	0.021973	-0.039368	-0.16571	0.010071	-0.008392	-0.040588	0.051575	0.39597	-0.036011	-0.009766	-0.013733
11.923	0.000305	0.1561	-0.078278	0.009155	-0.032196	-0.53741	0.032196	-0.015259	0.008087	0.006866	0.019226	0.003967	-0.047302	0.010834	-0.35339	0.006866	0.046387	-0.01358	-0.21042	0.016479	-0.53513	0.062408	-0.02121	-0.17242	0.017548	-0.004578	-0.025635	-0.012054	0.10056	0.074615	-0.005798	-0.002594
11.924	-0.00946	0.15335	-0.063171	0.005341	0.025177	-0.18097	0.041962	-0.011749	0.048065	0.00885	0.11322	0.004425	-0.042572	-0.001526	-0.026398	0.012207	-0.012817	0.01297	-0.09491	-0.031433	-0.26413	-0.092926	-0.020142	-0.027924	0.025177	-0.011444	-0.01358	-0.12466	-0.023956	0.090179	-0.006714	-0.010071
11.925	-0.019531	0.13641	-0.026398	-0.003662	0.000916	-0.033722	0.07019	-0.004425	0.062561	0.00885	0.099335	0.010834	-0.044403	-0.025787	-0.053101	0.008698	0.027924	-0.045624	-0.11322	-0.1648	-0.045471	-0.14404	0.005646	-0.005646	0.011444	-0.027466	-0.013733	-0.23987	-0.087433	0.30167	-0.00351	-0.005493
11.926	-0.030212	0.14145	-0.023804	-0.002594	-0.039978	-0.044098	0.06897	0.002136	0.059052	0.023499	0.03067	0.014648	-0.094757	-0.009766	0.16739	0	0.050201	-0.022278	-0.093231	-0.16739	0.12512	-0.18021	0.00473	-0.048828	0.028381	-0.029297	0.000153	0.3093	-0.17593	-0.19714	-0.006714	-0.011902
11.927	-0.030212	0.13443	-0.10651	0.014343	-0.01236	-0.044708	-0.006714	0.016022	0.053101	0.018768	-0.089874	0.009613	-0.05722	0.002594	-0.27664	-0.000916	0.019989	0.021057	-0.16892	-0.028992	0.15366	-0.16846	-0.028992	-0.014801	0.022583	-0.012207	0.000916	0.25894	-0.029602	-0.64926	-0.006714	-0.016479
11.928	-0.028992	0.1062	-0.065002	0.014038	0.033264	-0.062103	-0.045013	0.018158	0.030823	-0.02594	-0.12878	0.020752	0.09201	0.022583	-0.11353	0.009003	0.003967	0.015411	-0.19836	0.14389	0.1384	-0.21988	0.028992	-0.03418	0.001373	-0.000916	-0.014191	0.14023	0.064697	-0.24094	-0.003357	-0.021057
11.929	-0.007172	0.12695	-0.067139	-0.007935	0.036926	-0.042267	-0.014343	0.00473	-0.00412	-0.029907	-0.033722	0.011139	0.20584	0.007172	-0.14084	0.00885	0.000305	0.037537	-0.35202	0.20264	0.24963	-0.20554	-0.007782	-0.022125	0.000916	-0.00061	-0.061035	-0.32745	0.29388	0.13382	-0.001984	-0.015106
11.93	-0.001221	0.14389	-0.055084	-0.002289	0.045776	-0.02243	-0.024872	-0.002899	-0.10925	0.033264	0.094757	0.006866	0.14313	-0.015717	-0.11383	0.001526	0.014038	-0.057831	-0.096893	0.11368	0.22842	-0.042114	0.01236	-0.040436	-0.007477	0.001831	-0.025635	-0.047455	0.19882	0.24658	-0.004578	-0.027466
11.931	0	0.13443	-0.11765	0.004883	0.048981	0.11749	-0.025177	-0.008545	-0.06073	0.041046	0.042267	0.00351	0.004272	0.000763	-0.28198	-0.006714	-0.018463	-0.066223	0.099182	0.040436	-0.066681	0.038757	-0.009766	-0.044708	-0.004578	-0.005035	0.007935	0.14542	0.28595	0.070496	-0.005798	-0.017548
11.932	0.001221	0.1503	-0.11261	-0.010681	-0.050201	0.20798	0.030212	-0.000458	0.013885	0.016632	0.021057	0.002594	0.13138	-0.020142	-0.1442	-0.009003	-0.03952	0.011902	0.11917	0.041046	-0.2861	0.1503	0.003815	-0.032806	0.000763	-0.016479	0.016174	0.059814	0.10208	-0.062256	-0.009155	-0.011597
11.933	-0.009766	0.14481	-0.092316	-0.005951	-0.048676	0.1918	0.05127	-0.001831	0.049286	0.000305	0.013123	0.011139	0.63461	0.049133	0.023346	0.000763	-0.051422	-0.043335	-0.24338	-0.018158	-0.12299	0.042572	0.003357	0.016785	0.019531	-0.020599	0.011597	-0.000763	-0.17746	-0.19043	-0.003967	-0.015564
11.934	0.000763	0.11353	0.14404	0.003815	0.017395	0.099335	0.063629	0.005493	0.062408	-0.0177	0.010071	0.002747	0.53131	0.06546	0.044861	-0.001068	-0.025024	0.002899	-0.022736	-0.046692	0.12283	0.10071	0.036469	-0.050964	-0.012512	-0.013733	0.030975	-0.023041	-0.06012	0.10971	-0.000916	-0.021973
